<svg xmlns="http://www.w3.org/2000/svg" viewBox="0 0 64 64" role="img" aria-label="GitHub OAuth Demo icon">
  <defs>
    <linearGradient id="g" x1="0" y1="0" x2="1" y2="1">
      <stop offset="0%" stop-color="#f06543" />
      <stop offset="100%" stop-color="#101518" />
    </linearGradient>
  </defs>
  <rect width="64" height="64" rx="14" fill="url(#g)" />
  <path
    d="M32 18c-7.2 0-13 5.8-13 13 0 5.8 3.8 10.7 9 12.4.7.1 1-.3 1-.7v-2.6c-3.7.8-4.5-1.6-4.5-1.6-.6-1.5-1.4-1.9-1.4-1.9-1.1-.8.1-.8.1-.8 1.2.1 1.9 1.3 1.9 1.3 1.1 1.9 2.9 1.4 3.6 1.1.1-.8.4-1.4.7-1.7-3-.3-6.2-1.5-6.2-6.6 0-1.5.5-2.7 1.3-3.7-.1-.3-.6-1.7.1-3.5 0 0 1-.3 3.3 1.3.9-.3 1.9-.5 2.9-.5s2 .2 2.9.5c2.3-1.6 3.3-1.3 3.3-1.3.7 1.8.2 3.2.1 3.5.8 1 1.3 2.2 1.3 3.7 0 5.1-3.2 6.3-6.2 6.6.4.3.7 1 .7 2v3c0 .4.3.8 1 .7 5.2-1.7 9-6.6 9-12.4 0-7.2-5.8-13-13-13z"
    fill="#fff"
  />
</svg>
